<svg width="24" height="24" viewBox="0 0 24 24" fill="none" xmlns="http://www.w3.org/2000/svg">
<path d="M15.188 15.625V15.4179L15.0416 15.2714L14.6666 14.8964L14.3357 14.5656L13.9837 14.8738C12.5781 16.1042 10.6962 16.813 8.688 16.813C4.14642 16.813 0.5 13.2192 0.5 8.688C0.5 4.1521 4.15118 0.5 8.688 0.5C13.2201 0.5 16.813 4.14638 16.813 8.688C16.813 10.6962 16.1042 12.5781 14.8738 13.9837L14.5656 14.3357L14.8964 14.6666L15.2714 15.0416L15.4179 15.188H15.625H16.4809L22.6059 21.313L21.313 22.6059L15.188 16.4809V15.625ZM8.688 15.188C12.2772 15.188 15.188 12.2761 15.188 8.688C15.188 5.09986 12.2761 2.188 8.688 2.188C5.09986 2.188 2.188 5.09986 2.188 8.688C2.188 12.2761 5.09986 15.188 8.688 15.188Z" fill="#EAEAEA" stroke="#CD6326"/>
</svg>
